<svg xmlns="http://www.w3.org/2000/svg" viewBox="0 0 140.64 27.87"><defs><style>.cls-1{fill:#fff;}.cls-2{fill:#333;}</style></defs><title>Asset 1</title><g id="Layer_2" data-name="Layer 2"><g id="Layer_1-2" data-name="Layer 1"><path class="cls-1" d="M107.55,23.79a14.27,14.27,0,0,1-20,0,13.8,13.8,0,0,1,0-19.71,14.27,14.27,0,0,1,20,0,13.8,13.8,0,0,1,0,19.71Z"/><polygon class="cls-1" points="5.97 3.74 9.85 15.24 13.85 3.74 13.9 3.6 14.04 3.6 19.52 3.6 19.81 3.6 19.71 3.88 12.44 24.07 12.39 24.21 12.25 24.21 7.57 24.21 7.42 24.21 7.37 24.07 0.1 3.88 0 3.6 0.29 3.6 5.77 3.6 5.92 3.6 5.97 3.74 5.97 3.74"/><polygon class="cls-1" points="35.5 8.83 26.8 8.83 26.8 11.56 34.78 11.56 34.99 11.56 34.99 11.77 34.99 16.19 34.99 16.39 34.78 16.39 26.8 16.39 26.8 19.01 35.5 19.01 35.7 19.01 35.7 19.21 35.7 24.03 35.7 24.24 35.5 24.24 21.43 24.24 21.23 24.24 21.23 24.03 21.23 3.83 21.23 3.63 21.43 3.63 35.5 3.63 35.7 3.63 35.7 3.83 35.7 8.63 35.7 8.83 35.5 8.83 35.5 8.83"/><path class="cls-1" d="M40.86,23.54a10.07,10.07,0,0,1-3.21-2.74l-.11-.15.14-.13,3.22-3,.16-.15.14.17A5.48,5.48,0,0,0,45,19.37a4,4,0,0,0,1.18-.08,2.1,2.1,0,0,0,.86-.4,1.18,1.18,0,0,0,.44-.85h0c0-.42-.29-.77-.77-1.05a7.18,7.18,0,0,0-2.5-.76h0A8.31,8.31,0,0,1,39.47,14a6.07,6.07,0,0,1-1.7-4.36,5.62,5.62,0,0,1,2.08-4.47,8.57,8.57,0,0,1,5.42-1.78A9.31,9.31,0,0,1,49,4a8.78,8.78,0,0,1,3.39,2.62l.13.16-.17.13L49,9.5l-.15.11-.13-.14a4.9,4.9,0,0,0-3.29-1.57,3,3,0,0,0-1,.11,1.84,1.84,0,0,0-.73.41h0a1.51,1.51,0,0,0-.47,1.08,1.32,1.32,0,0,0,.68,1h0a5.62,5.62,0,0,0,1.84.68h0a11.6,11.6,0,0,1,5,1.86,5.76,5.76,0,0,1,2.13,5.23,5.77,5.77,0,0,1-2.43,4.41,9.78,9.78,0,0,1-5.77,1.83,8.18,8.18,0,0,1-3.83-1Z"/><path class="cls-1" d="M74,17.19a3.66,3.66,0,0,1,2.6-6.24A3.6,3.6,0,0,1,79.17,12a3.67,3.67,0,0,1,0,5.17,3.59,3.59,0,0,1-2.56,1.08A3.65,3.65,0,0,1,74,17.19Z"/><path class="cls-1" d="M115.91,17.19h0a3.66,3.66,0,0,1,2.6-6.24A3.6,3.6,0,0,1,121.06,12a3.67,3.67,0,0,1,0,5.17,3.59,3.59,0,0,1-2.56,1.08,3.65,3.65,0,0,1-2.6-1.07Z"/><path class="cls-1" d="M57.52,23.54a10.07,10.07,0,0,1-3.21-2.74l-.12-.15.14-.13,3.22-3,.16-.15.14.17a5.48,5.48,0,0,0,3.77,1.85,4,4,0,0,0,1.18-.08,2.1,2.1,0,0,0,.86-.4,1.18,1.18,0,0,0,.44-.85h0c0-.42-.29-.77-.77-1.05a7.17,7.17,0,0,0-2.5-.76h0A8.31,8.31,0,0,1,56.13,14a6.07,6.07,0,0,1-1.7-4.36,5.62,5.62,0,0,1,2.08-4.47,8.57,8.57,0,0,1,5.42-1.78A9.31,9.31,0,0,1,65.61,4,8.78,8.78,0,0,1,69,6.64l.13.16L69,6.94,65.64,9.5l-.15.11-.13-.14a4.9,4.9,0,0,0-3.29-1.57,3,3,0,0,0-1,.11,1.84,1.84,0,0,0-.73.41h0a1.51,1.51,0,0,0-.47,1.08,1.32,1.32,0,0,0,.68,1h0a5.61,5.61,0,0,0,1.84.68h0a11.6,11.6,0,0,1,5,1.86,5.76,5.76,0,0,1,2.13,5.23,5.77,5.77,0,0,1-2.43,4.41,9.78,9.78,0,0,1-5.77,1.83,8.18,8.18,0,0,1-3.83-1Z"/><path class="cls-1" d="M128.61,23.54a10.07,10.07,0,0,1-3.21-2.74l-.12-.15.14-.13,3.22-3,.16-.15.14.17a5.48,5.48,0,0,0,3.77,1.85,4,4,0,0,0,1.18-.08,2.1,2.1,0,0,0,.86-.4,1.18,1.18,0,0,0,.44-.85h0c0-.42-.29-.77-.77-1.05a7.17,7.17,0,0,0-2.5-.76h0A8.31,8.31,0,0,1,127.22,14a6.07,6.07,0,0,1-1.7-4.36,5.62,5.62,0,0,1,2.08-4.47A8.57,8.57,0,0,1,133,3.34,9.31,9.31,0,0,1,136.7,4a8.78,8.78,0,0,1,3.39,2.62l.13.16-.17.13L136.72,9.5l-.15.11-.13-.14a4.9,4.9,0,0,0-3.29-1.57,3,3,0,0,0-1,.11,1.84,1.84,0,0,0-.73.41h0A1.51,1.51,0,0,0,131,9.51a1.32,1.32,0,0,0,.68,1h0a5.61,5.61,0,0,0,1.84.68h0a11.6,11.6,0,0,1,5,1.86,5.76,5.76,0,0,1,2.13,5.23,5.77,5.77,0,0,1-2.43,4.41,9.78,9.78,0,0,1-5.77,1.83,8.18,8.18,0,0,1-3.83-1Z"/><path class="cls-2" d="M103.65,20.77,100.83,18a.39.39,0,0,1,0-.51.94.94,0,0,1,.12-.15l.15-.12a.41.41,0,0,1,.53,0l2.86,2.78a.39.39,0,0,0,.23.11.33.33,0,0,0,.15,0,.37.37,0,0,0,.14-.09.63.63,0,0,0,.16-.37h0l0-.14a9.15,9.15,0,0,1,.22-1.4,5.35,5.35,0,0,1,.39-1,5.84,5.84,0,0,1,.58-.87,3.19,3.19,0,0,0,.59-1.25,4.66,4.66,0,0,0,0-2,3.19,3.19,0,0,0-.59-1.25,5.84,5.84,0,0,1-.58-.87,5.36,5.36,0,0,1-.39-1,9.11,9.11,0,0,1-.22-1.4h0l0-.14h0a.63.63,0,0,0-.16-.37.37.37,0,0,0-.14-.09.33.33,0,0,0-.15,0,.39.39,0,0,0-.23.11l-2.86,2.78a.41.41,0,0,1-.53,0l-.15-.12a1,1,0,0,1-.12-.15.39.39,0,0,1,0-.51h0l2.82-2.82a.37.37,0,0,0,.11-.22.31.31,0,0,0,0-.14.36.36,0,0,0-.08-.13h0a.64.64,0,0,0-.39-.16h0l-.15,0a9.54,9.54,0,0,1-1.41-.21,5.49,5.49,0,0,1-1-.39,5.94,5.94,0,0,1-.89-.57,3.3,3.3,0,0,0-1.27-.58h0a4.89,4.89,0,0,0-2,0h0a3.3,3.3,0,0,0-1.27.58,6,6,0,0,1-.89.57,5.49,5.49,0,0,1-1,.39A9.56,9.56,0,0,1,92,6.43l-.15,0h0a.63.63,0,0,0-.39.16h0a.36.36,0,0,0-.08.13h0a.32.32,0,0,0,0,.14.37.37,0,0,0,.11.22l2.82,2.82a.39.39,0,0,1,0,.51.92.92,0,0,1-.12.15L94,10.7a.41.41,0,0,1-.53,0L90.63,7.93a.39.39,0,0,0-.23-.11.34.34,0,0,0-.15,0,.37.37,0,0,0-.14.09A.62.62,0,0,0,90,8.3h0l0,.14a9.19,9.19,0,0,1-.22,1.4,5.37,5.37,0,0,1-.39,1,5.84,5.84,0,0,1-.58.87,3.19,3.19,0,0,0-.59,1.25,4.65,4.65,0,0,0,0,2,3.19,3.19,0,0,0,.59,1.25,5.81,5.81,0,0,1,.58.87,5.36,5.36,0,0,1,.39,1,9.15,9.15,0,0,1,.22,1.4h0l0,.14h0a.62.62,0,0,0,.16.37.37.37,0,0,0,.14.09h0a.33.33,0,0,0,.15,0,.39.39,0,0,0,.23-.11l2.86-2.78a.41.41,0,0,1,.53,0l.15.12a.93.93,0,0,1,.12.15.39.39,0,0,1,0,.51h0l-2.82,2.82a.37.37,0,0,0-.11.22.31.31,0,0,0,0,.14.36.36,0,0,0,.08.13h0a.64.64,0,0,0,.39.16h0l.15,0a9.6,9.6,0,0,1,1.41.21,5.47,5.47,0,0,1,1,.39,5.93,5.93,0,0,1,.89.57,3.29,3.29,0,0,0,1.27.58h0a4.87,4.87,0,0,0,2,0h0a3.29,3.29,0,0,0,1.27-.58,6,6,0,0,1,.89-.57,5.49,5.49,0,0,1,1-.39,9.53,9.53,0,0,1,1.41-.21l.15,0h0a.63.63,0,0,0,.39-.16h0a.36.36,0,0,0,.08-.13h0a.32.32,0,0,0,0-.14.37.37,0,0,0-.11-.22Z"/><path class="cls-2" d="M97.56,18.08a4.23,4.23,0,0,0,3-1.22,4.11,4.11,0,0,0,0-5.87,4.25,4.25,0,0,0-6,0,4.11,4.11,0,0,0,0,5.87,4.23,4.23,0,0,0,3,1.22Z"/><path class="cls-2" d="M100.45,16.83a4.09,4.09,0,0,1-5.79,0h0A4.09,4.09,0,1,1,100.45,11h0a4.09,4.09,0,0,1,0,5.79Z"/><path class="cls-2" d="M97.56,17.62a3.68,3.68,0,0,0,2.6-6.29h0a3.68,3.68,0,1,0-2.6,6.29Z"/></g></g></svg>