<?xml version="1.0" encoding="utf-8"?>
<!-- Generator: Adobe Illustrator 21.1.0, SVG Export Plug-In . SVG Version: 6.00 Build 0)  -->
<svg version="1.1" id="Layer_1" xmlns="http://www.w3.org/2000/svg" xmlns:xlink="http://www.w3.org/1999/xlink" x="0px" y="0px"
	 viewBox="0 0 140.6 27.9" style="enable-background:new 0 0 140.6 27.9;" xml:space="preserve">
<style type="text/css">
	.st0{fill:#333333;}
	.st1{fill:#FFFFFF;}
</style>
<title>Asset 1</title>
<path class="st0" d="M107.6,23.8c-5.6,5.5-14.4,5.5-20,0C82.1,18.5,82,9.7,87.4,4.3c0.1-0.1,0.1-0.1,0.2-0.2c5.6-5.5,14.4-5.5,20,0
	c5.4,5.3,5.5,14.1,0.2,19.5C107.7,23.7,107.6,23.7,107.6,23.8z"/>
<polygon class="st0" points="6,3.7 9.9,15.2 13.9,3.7 13.9,3.6 14,3.6 19.5,3.6 19.8,3.6 19.7,3.9 12.4,24.1 12.4,24.2 12.3,24.2 
	7.6,24.2 7.4,24.2 7.4,24.1 0.1,3.9 0,3.6 0.3,3.6 5.8,3.6 5.9,3.6 6,3.7 "/>
<polygon class="st0" points="35.5,8.8 26.8,8.8 26.8,11.6 34.8,11.6 35,11.6 35,11.8 35,16.2 35,16.4 34.8,16.4 26.8,16.4 26.8,19 
	35.5,19 35.7,19 35.7,19.2 35.7,24 35.7,24.2 35.5,24.2 21.4,24.2 21.2,24.2 21.2,24 21.2,3.8 21.2,3.6 21.4,3.6 35.5,3.6 35.7,3.6 
	35.7,3.8 35.7,8.6 35.7,8.8 35.5,8.8 "/>
<path class="st0" d="M40.9,23.5c-1.3-0.7-2.3-1.6-3.2-2.7l-0.1-0.1l0.1-0.1l3.2-3l0.2-0.1l0.1,0.2c1,1.1,2.3,1.8,3.8,1.8
	c0.4,0,0.8,0,1.2-0.1c0.3-0.1,0.6-0.2,0.9-0.4c0.3-0.2,0.4-0.5,0.4-0.9l0,0c0-0.4-0.3-0.8-0.8-1c-0.8-0.4-1.6-0.7-2.5-0.8l0,0
	c-1.8-0.2-3.4-1-4.7-2.2c-1.1-1.2-1.7-2.7-1.7-4.4c0-1.7,0.7-3.4,2.1-4.5c1.6-1.2,3.5-1.8,5.4-1.8C46.5,3.3,47.8,3.5,49,4
	c1.3,0.6,2.5,1.5,3.4,2.6l0.1,0.2l-0.2,0.1L49,9.5l-0.2,0.1l-0.1-0.1c-0.9-0.9-2-1.5-3.3-1.6c-0.3,0-0.7,0-1,0.1
	c-0.3,0.1-0.5,0.2-0.7,0.4l0,0c-0.3,0.3-0.5,0.7-0.5,1.1c0.1,0.4,0.3,0.8,0.7,1l0,0c0.6,0.3,1.2,0.6,1.8,0.7l0,0
	c1.8,0.2,3.5,0.9,5,1.9c1.6,1.3,2.4,3.2,2.1,5.2c-0.1,1.8-1,3.4-2.4,4.4c-1.7,1.2-3.7,1.8-5.8,1.8C43.3,24.5,42,24.2,40.9,23.5
	L40.9,23.5z"/>
<path class="st0" d="M74,17.2c-1.4-1.4-1.4-3.8,0-5.2c0.7-0.7,1.6-1.1,2.6-1.1c1,0,1.9,0.4,2.6,1c1.4,1.4,1.4,3.7,0,5.2
	c-0.7,0.7-1.6,1.1-2.6,1.1C75.6,18.3,74.7,17.9,74,17.2z"/>
<path class="st0" d="M115.9,17.2L115.9,17.2c-1.4-1.4-1.4-3.8,0-5.2c0.7-0.7,1.6-1.1,2.6-1.1c1,0,1.9,0.4,2.5,1
	c1.4,1.4,1.4,3.7,0,5.2c-0.7,0.7-1.6,1.1-2.6,1.1C117.5,18.3,116.6,17.9,115.9,17.2L115.9,17.2z"/>
<path class="st0" d="M57.5,23.5c-1.3-0.7-2.3-1.6-3.2-2.7l-0.1-0.1l0.1-0.1l3.2-3l0.2-0.1l0.1,0.2c1,1.1,2.3,1.8,3.8,1.9
	c0.4,0,0.8,0,1.2-0.1c0.3-0.1,0.6-0.2,0.9-0.4c0.3-0.2,0.4-0.5,0.4-0.9l0,0c0-0.4-0.3-0.8-0.8-1c-0.8-0.4-1.6-0.7-2.5-0.8l0,0
	c-1.8-0.2-3.4-1-4.7-2.3c-1.1-1.2-1.7-2.7-1.7-4.4c0-1.7,0.7-3.4,2.1-4.5C58.1,4,60,3.3,61.9,3.4c1.3,0,2.5,0.2,3.7,0.6
	c1.3,0.6,2.5,1.5,3.4,2.6l0.1,0.2L69,6.9l-3.4,2.6l-0.2,0.1l-0.1-0.1c-0.9-0.9-2-1.5-3.3-1.6c-0.3,0-0.7,0-1,0.1
	c-0.3,0.1-0.5,0.2-0.7,0.4l0,0c-0.3,0.3-0.5,0.7-0.5,1.1c0.1,0.4,0.3,0.8,0.7,1l0,0c0.6,0.3,1.2,0.6,1.8,0.7l0,0
	c1.8,0.2,3.5,0.9,5,1.9c1.6,1.3,2.4,3.2,2.1,5.2c-0.1,1.8-1,3.4-2.4,4.4c-1.7,1.2-3.7,1.8-5.8,1.8C60,24.5,58.7,24.2,57.5,23.5
	L57.5,23.5z"/>
<path class="st0" d="M128.6,23.5c-1.3-0.7-2.3-1.6-3.2-2.7l-0.1-0.1l0.1-0.1l3.2-3l0.2-0.1l0.1,0.2c1,1.1,2.3,1.8,3.8,1.9
	c0.4,0,0.8,0,1.2-0.1c0.3-0.1,0.6-0.2,0.9-0.4c0.3-0.2,0.4-0.5,0.4-0.9l0,0c0-0.4-0.3-0.8-0.8-1c-0.8-0.4-1.6-0.7-2.5-0.8l0,0
	c-1.8-0.2-3.4-1-4.7-2.3c-1.1-1.2-1.7-2.7-1.7-4.4c0-1.7,0.7-3.4,2.1-4.5c1.5-1.2,3.4-1.9,5.4-1.8c1.3,0,2.5,0.2,3.7,0.7
	c1.3,0.6,2.5,1.5,3.4,2.6l0.1,0.2l-0.2,0.1l-3.3,2.6l-0.1,0.1l-0.1-0.1c-0.9-0.9-2-1.5-3.3-1.6c-0.3,0-0.7,0-1,0.1
	c-0.3,0.1-0.5,0.2-0.7,0.4l0,0c-0.3,0.3-0.4,0.7-0.4,1.1c0.1,0.4,0.3,0.8,0.7,1l0,0c0.6,0.3,1.2,0.6,1.8,0.7l0,0
	c1.8,0.2,3.5,0.9,5,1.9c1.6,1.3,2.4,3.2,2.1,5.2c-0.1,1.8-1,3.4-2.4,4.4c-1.7,1.2-3.7,1.8-5.8,1.8C131.1,24.5,129.8,24.2,128.6,23.5
	L128.6,23.5z"/>
<path class="st1" d="M103.7,20.8l-2.8-2.8c-0.1-0.1-0.1-0.4,0-0.5c0-0.1,0.1-0.1,0.1-0.1l0.2-0.1c0.2-0.1,0.4-0.1,0.5,0l2.9,2.8
	c0.1,0.1,0.1,0.1,0.2,0.1c0,0,0.1,0,0.2,0c0.1,0,0.1,0,0.1-0.1c0.1-0.1,0.1-0.2,0.2-0.4l0,0v-0.1c0-0.5,0.1-0.9,0.2-1.4
	c0.1-0.3,0.2-0.7,0.4-1c0.2-0.3,0.4-0.6,0.6-0.9c0.3-0.4,0.5-0.8,0.6-1.3c0.1-0.7,0.1-1.3,0-2c-0.1-0.5-0.3-0.9-0.6-1.3
	c-0.2-0.3-0.4-0.6-0.6-0.9c-0.2-0.3-0.3-0.7-0.4-1c-0.1-0.5-0.2-0.9-0.2-1.4l0,0V8.3l0,0c0-0.1-0.1-0.3-0.2-0.4c0,0-0.1-0.1-0.1-0.1
	c0,0-0.1,0-0.2,0c-0.1,0-0.2,0-0.2,0.1l-2.9,2.8c-0.2,0.1-0.4,0.1-0.5,0l-0.2-0.1c0,0-0.1-0.1-0.1-0.1c-0.1-0.1-0.1-0.4,0-0.5l0,0
	l2.8-2.8c0.1-0.1,0.1-0.1,0.1-0.2c0,0,0-0.1,0-0.1c0,0,0-0.1-0.1-0.1l0,0c-0.1-0.1-0.2-0.2-0.4-0.2l0,0h-0.2c-0.5,0-0.9-0.1-1.4-0.2
	c-0.3-0.1-0.7-0.2-1-0.4c-0.3-0.2-0.6-0.4-0.9-0.6c-0.4-0.3-0.8-0.5-1.3-0.6l0,0c-0.7-0.1-1.3-0.1-2,0l0,0c-0.5,0.1-0.9,0.3-1.3,0.6
	c-0.3,0.2-0.6,0.4-0.9,0.6c-0.3,0.2-0.7,0.3-1,0.4c-0.5,0.1-0.9,0.1-1.4,0.1h-0.2l0,0c-0.1,0-0.3,0.1-0.4,0.2l0,0
	c0,0-0.1,0.1-0.1,0.1l0,0c0,0,0,0.1,0,0.1c0,0.1,0,0.2,0.1,0.2l2.8,2.8c0.1,0.1,0.1,0.4,0,0.5c0,0.1-0.1,0.1-0.1,0.1L94,10.7
	c-0.2,0.1-0.4,0.1-0.5,0l-2.8-2.8c-0.1-0.1-0.1-0.1-0.2-0.1c0,0-0.1,0-0.2,0c-0.1,0-0.1,0-0.1,0.1C90,8,90,8.2,90,8.3l0,0v0.1
	c0,0.5-0.1,0.9-0.2,1.4c-0.1,0.3-0.2,0.7-0.4,1c-0.2,0.3-0.4,0.6-0.6,0.9c-0.3,0.4-0.5,0.8-0.6,1.3c-0.1,0.7-0.1,1.3,0,2
	c0.1,0.5,0.3,0.9,0.6,1.2c0.2,0.3,0.4,0.6,0.6,0.9c0.2,0.3,0.3,0.7,0.4,1c0.1,0.5,0.2,0.9,0.2,1.4l0,0v0.1l0,0
	c0,0.1,0.1,0.3,0.2,0.4c0,0,0.1,0.1,0.1,0.1l0,0c0,0,0.1,0,0.2,0c0.1,0,0.2,0,0.2-0.1l2.9-2.8c0.2-0.1,0.4-0.1,0.5,0l0.2,0.1
	c0,0,0.1,0.1,0.1,0.1c0.1,0.1,0.1,0.4,0,0.5l0,0l-2.8,2.8c-0.1,0.1-0.1,0.1-0.1,0.2c0,0,0,0.1,0,0.1c0,0,0,0.1,0.1,0.1l0,0
	c0.1,0.1,0.2,0.2,0.4,0.2l0,0H92c0.5,0,0.9,0.1,1.4,0.2c0.3,0.1,0.7,0.2,1,0.4c0.3,0.2,0.6,0.4,0.9,0.6c0.4,0.3,0.8,0.5,1.3,0.6l0,0
	c0.7,0.1,1.3,0.1,2,0l0,0c0.5-0.1,0.9-0.3,1.3-0.6c0.3-0.2,0.6-0.4,0.9-0.6c0.3-0.2,0.7-0.3,1-0.4c0.5-0.1,0.9-0.2,1.4-0.2h0.2l0,0
	c0.1,0,0.3-0.1,0.4-0.2l0,0c0,0,0.1-0.1,0.1-0.1l0,0c0,0,0-0.1,0-0.1C103.8,20.9,103.7,20.8,103.7,20.8L103.7,20.8z"/>
</svg>
