<?xml version="1.0" encoding="utf-8"?>
<!-- Generator: Adobe Illustrator 21.1.0, SVG Export Plug-In . SVG Version: 6.00 Build 0)  -->
<svg version="1.1" id="Layer_1" xmlns="http://www.w3.org/2000/svg" xmlns:xlink="http://www.w3.org/1999/xlink" x="0px" y="0px"
	 viewBox="0 0 30.9 28.8" style="enable-background:new 0 0 30.9 28.8;" xml:space="preserve">
<style type="text/css">
	.st0{fill:#212121;}
</style>
<title>request_assistance_iconAsset 1</title>
<g id="Layer_2">
	<g id="Layer_1-2">
		<path class="st0" d="M23.4,20.6c-0.2-0.2-0.4-0.3-0.5-0.5l0,0c-0.4-1-0.6-2-0.6-3v-0.4l0,0c-0.2-1.8-0.9-3.5-1.9-5
			c-0.8-1.1-1.8-1.9-3.1-2.3c-0.1-1-1.1-1.7-2.1-1.5c-0.8,0.1-1.4,0.7-1.5,1.5c-1.2,0.4-2.3,1.2-3.1,2.3c-1,1.5-1.7,3.2-1.9,5l0,0
			l0,0v0.4c0,1-0.2,2-0.6,3l0,0c-0.1,0.2-0.3,0.4-0.5,0.5c-1.1,0.7-1.4,2.1-0.7,3.1c0.2,0.3,0.5,0.5,0.9,0.5h15.4
			c0.4,0,0.7-0.2,0.9-0.5C24.8,22.7,24.4,21.3,23.4,20.6z"/>
		<path class="st0" d="M17.2,26h-3.6c-0.1,0-0.3,0.1-0.4,0.2c-0.1,0.2-0.2,0.4-0.1,0.7l0,0c0.2,1.3,1.4,2.1,2.7,1.9
			c1-0.2,1.8-1,1.9-2l0,0c0.1-0.2,0-0.4-0.1-0.6C17.5,26.1,17.4,26,17.2,26L17.2,26z"/>
		<path class="st0" d="M9.1,1.1C9,0.4,8.3-0.1,7.6,0c0,0,0,0,0,0c-2,0.3-3.9,1.4-5.3,2.9C0.9,4.4,0.1,6.3,0,8.4
			c0,0.7,0.5,1.4,1.3,1.4c0,0,0,0,0,0h0.1c0.7,0,1.3-0.6,1.3-1.3c0.2-3,2.4-5.4,5.3-5.9C8.7,2.5,9.2,1.8,9.1,1.1z"/>
		<path class="st0" d="M7.4,10.4c0.1-1.6,1.3-2.9,2.8-3.1c0.7-0.1,1.2-0.8,1.1-1.5s-0.8-1.2-1.5-1.1l0,0C7,5.1,4.9,7.4,4.8,10.2
			c0,0.7,0.5,1.4,1.2,1.4h0.1C6.8,11.7,7.4,11.1,7.4,10.4z"/>
		<path class="st0" d="M30.9,8.4c-0.1-2-0.9-4-2.3-5.5c-1.4-1.5-3.2-2.6-5.3-2.9c-0.7-0.1-1.4,0.4-1.5,1.1c-0.1,0.7,0.4,1.4,1.1,1.5
			c2.9,0.5,5.1,2.9,5.3,5.9c0,0.7,0.6,1.3,1.3,1.3h0.1c0.7,0,1.2-0.6,1.3-1.3L30.9,8.4L30.9,8.4z"/>
		<path class="st0" d="M24.6,6.6c-0.9-1-2.2-1.7-3.5-1.9c-0.7-0.1-1.4,0.4-1.5,1.1c-0.1,0.7,0.4,1.4,1.1,1.5
			c1.6,0.3,2.7,1.5,2.8,3.1c0,0.7,0.6,1.3,1.3,1.3h0.1c0.7,0,1.3-0.7,1.3-1.4c0,0,0,0,0,0C26.1,8.9,25.5,7.6,24.6,6.6z"/>
	</g>
</g>
</svg>
