<svg xmlns="http://www.w3.org/2000/svg" viewBox="0 0 30.92 28.8"><defs><style>.cls-1{fill:#fff;}</style></defs><title>request_assistance_iconAsset 1</title><g id="Layer_2" data-name="Layer 2"><g id="Layer_1-2" data-name="Layer 1"><path class="cls-1" d="M23.39,20.65a2.46,2.46,0,0,1-.52-.55l0,0a9.19,9.19,0,0,1-.61-3l0-.39v0a11.12,11.12,0,0,0-1.88-5,6,6,0,0,0-3.07-2.26,1.81,1.81,0,0,0-3.58,0,6,6,0,0,0-3.07,2.26,11.12,11.12,0,0,0-1.88,5h0v0l0,.39a9.16,9.16,0,0,1-.61,3l0,0a2.46,2.46,0,0,1-.52.55,2.3,2.3,0,0,0-.73,3.14,1,1,0,0,0,.89.53H23.23a1,1,0,0,0,.89-.53,2.31,2.31,0,0,0-.73-3.14Z"/><path class="cls-1" d="M17.23,26H13.63a.5.5,0,0,0-.38.18.78.78,0,0,0-.1.66h0a2.34,2.34,0,0,0,4.62-.08v0a.64.64,0,0,0-.11-.56.56.56,0,0,0-.45-.2Z"/><path class="cls-1" d="M9.08,1.12A1.34,1.34,0,0,0,7.54,0,9,9,0,0,0,2.29,2.89,8.93,8.93,0,0,0,0,8.37,1.34,1.34,0,0,0,1.26,9.79h.08A1.34,1.34,0,0,0,2.68,8.53,6.33,6.33,0,0,1,8,2.66,1.34,1.34,0,0,0,9.08,1.12Z"/><path class="cls-1" d="M7.43,10.4a3.37,3.37,0,0,1,2.82-3.12,1.34,1.34,0,0,0-.43-2.65,6.05,6.05,0,0,0-5.06,5.61A1.34,1.34,0,0,0,6,11.66h.08A1.34,1.34,0,0,0,7.43,10.4Z"/><path class="cls-1" d="M30.92,8.37a8.93,8.93,0,0,0-2.29-5.48A9,9,0,0,0,23.38,0a1.34,1.34,0,1,0-.43,2.65,6.33,6.33,0,0,1,5.3,5.87,1.34,1.34,0,0,0,1.34,1.26h.08a1.34,1.34,0,0,0,1.26-1.28V8.37Z"/><path class="cls-1" d="M24.63,6.56A6.07,6.07,0,0,0,21.1,4.63a1.34,1.34,0,0,0-.43,2.65,3.37,3.37,0,0,1,2.82,3.12,1.34,1.34,0,0,0,1.34,1.26h.08a1.34,1.34,0,0,0,1.26-1.42,6.07,6.07,0,0,0-1.54-3.68Z"/></g></g></svg>